<svg width="1050" height="1050" viewBox="0 0 1050 1050" fill="none" xmlns="http://www.w3.org/2000/svg">
<g filter="url(#filter0_d_21_2)">
<path d="M1025 525C1025 801.142 801.142 1025 525 1025C248.858 1025 25 801.142 25 525C25 248.858 248.858 25 525 25C801.142 25 1025 248.858 1025 525Z" fill="#05E9F8"/>
<path d="M1023.5 525C1023.5 800.314 800.314 1023.5 525 1023.5C249.686 1023.5 26.5 800.314 26.5 525C26.5 249.686 249.686 26.5 525 26.5C800.314 26.5 1023.5 249.686 1023.5 525Z" stroke="#047892" stroke-width="3"/>
</g>
<path d="M400.477 463H342.477V631H310.477V463H252.477V435H400.477V463ZM578.43 575H470.43V631H438.43V491L466.43 463H438.43V435H578.43V463H470.43V571L494.43 547H578.43V575ZM774.523 631H634.523V491L662.523 463H634.523V435H774.523V463H666.523V543L690.523 519H774.523V547H666.523V603H774.523V631Z" fill="black"/>
<defs>
<filter id="filter0_d_21_2" x="0" y="0" width="1050" height="1050" filterUnits="userSpaceOnUse" color-interpolation-filters="sRGB">
<feFlood flood-opacity="0" result="BackgroundImageFix"/>
<feColorMatrix in="SourceAlpha" type="matrix" values="0 0 0 0 0 0 0 0 0 0 0 0 0 0 0 0 0 0 127 0" result="hardAlpha"/>
<feOffset/>
<feGaussianBlur stdDeviation="12.5"/>
<feComposite in2="hardAlpha" operator="out"/>
<feColorMatrix type="matrix" values="0 0 0 0 0.0202257 0 0 0 0 0.913797 0 0 0 0 0.970833 0 0 0 1 0"/>
<feBlend mode="normal" in2="BackgroundImageFix" result="effect1_dropShadow_21_2"/>
<feBlend mode="normal" in="SourceGraphic" in2="effect1_dropShadow_21_2" result="shape"/>
</filter>
</defs>
</svg>
